HIERARCHY
ROOT mixamorig:Hips
{
	OFFSET 0.000000 77.714516 0.000000
	CHANNELS 6 Xposition Yposition Zposition Xrotation Yrotation Zrotation
	JOINT mixamorig:Spine
	{
		OFFSET 0.000000 14.685699 -1.734700
		CHANNELS 3 Xrotation Yrotation Zrotation
		JOINT mixamorig:Spine1
		{
			OFFSET 0.000000 17.133286 -2.023825
			CHANNELS 3 Xrotation Yrotation Zrotation
			JOINT mixamorig:Spine2
			{
				OFFSET 0.000000 19.580956 -2.312950
				CHANNELS 3 Xrotation Yrotation Zrotation
				JOINT mixamorig:Neck
				{
					OFFSET 0.000000 22.028564 -2.602067
					CHANNELS 3 Xrotation Yrotation Zrotation
					JOINT mixamorig:Head
					{
						OFFSET 0.000000 7.772293 1.167700
						CHANNELS 3 Xrotation Yrotation Zrotation
						JOINT mixamorig:HeadTop_End
						{
							OFFSET 0.000000 26.518204 3.983900
							CHANNELS 3 Xrotation Yrotation Zrotation
							End Site
							{
								OFFSET 0.000000 26.815781 0.000000
							}
						}
					}
				}
				JOINT mixamorig:LeftShoulder
				{
					OFFSET 11.646600 18.513336 -2.583780
					CHANNELS 3 Xrotation Yrotation Zrotation
					JOINT mixamorig:LeftArm
					{
						OFFSET 23.544209 -6.614426 0.036475
						CHANNELS 3 Xrotation Yrotation Zrotation
						JOINT mixamorig:LeftForeArm
						{
							OFFSET 22.756695 0.000000 -0.000001
							CHANNELS 3 Xrotation Yrotation Zrotation
							JOINT mixamorig:LeftHand
							{
								OFFSET 32.238304 0.000000 -0.000001
								CHANNELS 3 Xrotation Yrotation Zrotation
								JOINT mixamorig:LeftHandThumb1
								{
									OFFSET 4.391930 -2.771759 4.066533
									CHANNELS 3 Xrotation Yrotation Zrotation
									JOINT mixamorig:LeftHandThumb2
									{
										OFFSET 4.087418 -2.359879 2.359871
										CHANNELS 3 Xrotation Yrotation Zrotation
										JOINT mixamorig:LeftHandThumb3
										{
											OFFSET 4.044945 -2.335342 2.335349
											CHANNELS 3 Xrotation Yrotation Zrotation
											JOINT mixamorig:LeftHandThumb4
											{
												OFFSET 3.242561 -1.872101 1.872095
												CHANNELS 3 Xrotation Yrotation Zrotation
												End Site
												{
													OFFSET 2.876892 -1.863678 2.402885
												}
											}
										}
									}
								}
								JOINT mixamorig:LeftHandIndex1
								{
									OFFSET 13.080666 -0.495590 3.860911
									CHANNELS 3 Xrotation Yrotation Zrotation
									JOINT mixamorig:LeftHandIndex2
									{
										OFFSET 4.467804 0.000000 0.000000
										CHANNELS 3 Xrotation Yrotation Zrotation
										JOINT mixamorig:LeftHandIndex3
										{
											OFFSET 4.434097 0.000000 0.000000
											CHANNELS 3 Xrotation Yrotation Zrotation
											JOINT mixamorig:LeftHandIndex4
											{
												OFFSET 3.589699 0.000000 0.000000
												CHANNELS 3 Xrotation Yrotation Zrotation
												End Site
												{
													OFFSET 3.589706 0.000000 0.000200
												}
											}
										}
									}
								}
								JOINT mixamorig:LeftHandMiddle1
								{
									OFFSET 12.178093 0.000000 0.000000
									CHANNELS 3 Xrotation Yrotation Zrotation
									JOINT mixamorig:LeftHandMiddle2
									{
										OFFSET 5.491508 0.000000 0.000000
										CHANNELS 3 Xrotation Yrotation Zrotation
										JOINT mixamorig:LeftHandMiddle3
										{
											OFFSET 5.202805 0.000000 0.000000
											CHANNELS 3 Xrotation Yrotation Zrotation
											JOINT mixamorig:LeftHandMiddle4
											{
												OFFSET 4.456505 0.000000 0.000000
												CHANNELS 3 Xrotation Yrotation Zrotation
												End Site
												{
													OFFSET 4.456505 -0.000046 0.006499
												}
											}
										}
									}
								}
								JOINT mixamorig:LeftHandRing1
								{
									OFFSET 11.850945 -0.053970 -3.835439
									CHANNELS 3 Xrotation Yrotation Zrotation
									JOINT mixamorig:LeftHandRing2
									{
										OFFSET 4.691414 0.000000 0.000000
										CHANNELS 3 Xrotation Yrotation Zrotation
										JOINT mixamorig:LeftHandRing3
										{
											OFFSET 4.518303 0.000000 0.000000
											CHANNELS 3 Xrotation Yrotation Zrotation
											JOINT mixamorig:LeftHandRing4
											{
												OFFSET 3.568130 0.000000 0.000000
												CHANNELS 3 Xrotation Yrotation Zrotation
												End Site
												{
													OFFSET 3.568100 -0.000168 0.014599
												}
											}
										}
									}
								}
								JOINT mixamorig:LeftHandPinky1
								{
									OFFSET 10.491814 -0.458572 -7.033705
									CHANNELS 3 Xrotation Yrotation Zrotation
									JOINT mixamorig:LeftHandPinky2
									{
										OFFSET 4.452301 0.000000 0.000000
										CHANNELS 3 Xrotation Yrotation Zrotation
										JOINT mixamorig:LeftHandPinky3
										{
											OFFSET 3.536598 0.000000 0.000000
											CHANNELS 3 Xrotation Yrotation Zrotation
											JOINT mixamorig:LeftHandPinky4
											{
												OFFSET 2.823502 0.000000 0.000000
												CHANNELS 3 Xrotation Yrotation Zrotation
												End Site
												{
													OFFSET 2.823502 0.000000 0.000600
												}
											}
										}
									}
								}
							}
						}
					}
				}
				JOINT mixamorig:RightShoulder
				{
					OFFSET -11.646600 18.513351 -2.620334
					CHANNELS 3 Xrotation Yrotation Zrotation
					JOINT mixamorig:RightArm
					{
						OFFSET -23.544205 -6.614441 -0.036501
						CHANNELS 3 Xrotation Yrotation Zrotation
						JOINT mixamorig:RightForeArm
						{
							OFFSET -22.759399 0.000000 0.000001
							CHANNELS 3 Xrotation Yrotation Zrotation
							JOINT mixamorig:RightHand
							{
								OFFSET -32.238106 0.000000 0.000001
								CHANNELS 3 Xrotation Yrotation Zrotation
								JOINT mixamorig:RightHandThumb1
								{
									OFFSET -4.492897 -2.767944 4.026622
									CHANNELS 3 Xrotation Yrotation Zrotation
									JOINT mixamorig:RightHandThumb2
									{
										OFFSET -4.113335 -2.374832 2.374833
										CHANNELS 3 Xrotation Yrotation Zrotation
										JOINT mixamorig:RightHandThumb3
										{
											OFFSET -4.066299 -2.347672 2.347678
											CHANNELS 3 Xrotation Yrotation Zrotation
											JOINT mixamorig:RightHandThumb4
											{
												OFFSET -3.138756 -1.812164 1.812160
												CHANNELS 3 Xrotation Yrotation Zrotation
												End Site
												{
													OFFSET -2.613274 -1.789185 2.527684
												}
											}
										}
									}
								}
								JOINT mixamorig:RightHandIndex1
								{
									OFFSET -12.930191 -0.141510 3.700550
									CHANNELS 3 Xrotation Yrotation Zrotation
									JOINT mixamorig:RightHandIndex2
									{
										OFFSET -4.764015 0.000000 0.000000
										CHANNELS 3 Xrotation Yrotation Zrotation
										JOINT mixamorig:RightHandIndex3
										{
											OFFSET -4.419807 0.000000 0.000000
											CHANNELS 3 Xrotation Yrotation Zrotation
											JOINT mixamorig:RightHandIndex4
											{
												OFFSET -3.701851 0.000000 0.000000
												CHANNELS 3 Xrotation Yrotation Zrotation
												End Site
												{
													OFFSET -3.701797 0.000153 -0.018699
												}
											}
										}
									}
								}
								JOINT mixamorig:RightHandMiddle1
								{
									OFFSET -12.168388 0.000000 0.000001
									CHANNELS 3 Xrotation Yrotation Zrotation
									JOINT mixamorig:RightHandMiddle2
									{
										OFFSET -5.385834 0.000000 0.000000
										CHANNELS 3 Xrotation Yrotation Zrotation
										JOINT mixamorig:RightHandMiddle3
										{
											OFFSET -5.321609 0.000000 0.000000
											CHANNELS 3 Xrotation Yrotation Zrotation
											JOINT mixamorig:RightHandMiddle4
											{
												OFFSET -4.501015 0.000000 0.000000
												CHANNELS 3 Xrotation Yrotation Zrotation
												End Site
												{
													OFFSET -4.500992 -0.000168 0.011299
												}
											}
										}
									}
								}
								JOINT mixamorig:RightHandRing1
								{
									OFFSET -11.815239 0.302551 -3.905540
									CHANNELS 3 Xrotation Yrotation Zrotation
									JOINT mixamorig:RightHandRing2
									{
										OFFSET -4.583313 0.000000 0.000000
										CHANNELS 3 Xrotation Yrotation Zrotation
										JOINT mixamorig:RightHandRing3
										{
											OFFSET -4.612907 0.000000 0.000000
											CHANNELS 3 Xrotation Yrotation Zrotation
											JOINT mixamorig:RightHandRing4
											{
												OFFSET -3.358940 0.000000 0.000000
												CHANNELS 3 Xrotation Yrotation Zrotation
												End Site
												{
													OFFSET -3.358910 -0.000198 0.016799
												}
											}
										}
									}
								}
								JOINT mixamorig:RightHandPinky1
								{
									OFFSET -10.511444 -0.263382 -6.996516
									CHANNELS 3 Xrotation Yrotation Zrotation
									JOINT mixamorig:RightHandPinky2
									{
										OFFSET -4.477509 0.000000 0.000000
										CHANNELS 3 Xrotation Yrotation Zrotation
										JOINT mixamorig:RightHandPinky3
										{
											OFFSET -3.497902 0.000000 0.000000
											CHANNELS 3 Xrotation Yrotation Zrotation
											JOINT mixamorig:RightHandPinky4
											{
												OFFSET -2.797302 0.000000 0.000000
												CHANNELS 3 Xrotation Yrotation Zrotation
												End Site
												{
													OFFSET -2.797302 -0.000031 0.002200
												}
											}
										}
									}
								}
							}
						}
					}
				}
			}
		}
	}
	JOINT mixamorig:LeftUpLeg
	{
		OFFSET 13.580900 -8.149200 -1.796100
		CHANNELS 3 Xrotation Yrotation Zrotation
		JOINT mixamorig:LeftLeg
		{
			OFFSET 1.779603 -35.946629 -2.676069
			CHANNELS 3 Xrotation Yrotation Zrotation
			JOINT mixamorig:LeftFoot
			{
				OFFSET -1.779600 -26.652353 -2.057156
				CHANNELS 3 Xrotation Yrotation Zrotation
				JOINT mixamorig:LeftToeBase
				{
					OFFSET -1.192457 -6.581663 13.403625
					CHANNELS 3 Xrotation Yrotation Zrotation
					JOINT mixamorig:LeftToe_End
					{
						OFFSET -0.351332 -0.163919 5.937958
						CHANNELS 3 Xrotation Yrotation Zrotation
						End Site
						{
							OFFSET -0.351332 -0.163919 5.937958
						}
					}
				}
			}
		}
	}
	JOINT mixamorig:RightUpLeg
	{
		OFFSET -13.580900 -8.149200 -2.255300
		CHANNELS 3 Xrotation Yrotation Zrotation
		JOINT mixamorig:RightLeg
		{
			OFFSET -1.779582 -35.946686 -2.316831
			CHANNELS 3 Xrotation Yrotation Zrotation
			JOINT mixamorig:RightFoot
			{
				OFFSET 1.779588 -26.652205 -2.090130
				CHANNELS 3 Xrotation Yrotation Zrotation
				JOINT mixamorig:RightToeBase
				{
					OFFSET 1.192391 -6.582412 13.372187
					CHANNELS 3 Xrotation Yrotation Zrotation
					JOINT mixamorig:RightToe_End
					{
						OFFSET 0.351304 -0.164246 5.913598
						CHANNELS 3 Xrotation Yrotation Zrotation
						End Site
						{
							OFFSET 0.351304 -0.164246 5.913598
						}
					}
				}
			}
		}
	}
}
MOTION
Frames: 4
Frame Time: 0.016667
-15.717863 62.591476 -19.287109 26.851002 37.636931 -26.073120 22.050946 1.025176 -5.221223 9.688830 0.139052 -1.344888 9.691506 0.179845 -1.324107 -17.493749 -6.216083 3.930963 -19.282939 -25.099907 16.812113 -0.000002 -0.000001 0.000001 -10.353882 -11.580190 4.692108 -55.946452 -78.944467 -98.482975 -0.000055 -81.078355 -0.000084 1.558879 1.394860 25.761781 -1.665936 10.475366 7.161670 4.500567 14.758249 1.259431 0.034249 8.370850 3.195734 -0.000002 -0.000001 -0.000002 0.039115 0.734323 -6.096753 0.222027 1.737786 -14.560394 0.368671 2.226939 -18.797954 0.000000 -0.000000 -0.000003 0.099934 1.171167 -9.753165 0.357099 2.192661 -18.497706 0.337860 2.134353 -17.988323 -0.000000 -0.000000 0.000002 0.260888 1.881031 -15.791551 0.680784 2.990061 -25.647113 0.665991 2.959096 -25.362173 0.000000 -0.000000 -0.000000 1.264157 5.701783 -14.480691 0.613872 -1.227321 -24.668130 0.758615 3.146862 -27.101713 0.000000 -0.000000 0.000001 0.975150 0.041506 -5.757064 -76.620024 38.137990 40.283899 0.000009 35.588100 -0.000010 -22.219693 1.809068 26.570003 -2.014184 -11.528561 -7.837541 5.353899 -16.615589 -0.772905 -0.558990 -7.825507 -2.926916 0.000001 -0.000000 0.000001 0.308640 -2.052471 17.101904 1.482717 -4.296778 38.062342 0.062758 -0.934039 7.688118 -0.000001 -0.000001 -0.000003 0.432257 -2.417680 20.270680 0.806812 -3.255968 27.827369 0.472148 -2.522966 21.196059 0.000000 0.000000 -0.000001 0.831123 -3.301547 28.252215 0.060976 -0.920720 7.577770 0.206745 -1.686214 13.978760 -0.000001 0.000001 0.000003 1.175885 -3.874130 33.930375 0.002092 0.170646 -0.000089 0.487384 -2.561920 21.540035 -0.000002 -0.000000 0.000001 -79.765654 -2.166154 8.073087 72.106007 -10.561372 6.835177 -13.717685 -13.687901 -1.996703 -0.020898 -0.000018 0.000003 -0.000000 0.000002 -0.000000 -36.797426 -20.357992 -30.270152 58.287660 -4.597724 -10.890625 -4.025088 -3.636245 10.782887 -28.973499 -0.015621 0.431021 -0.000001 0.000001 -0.000002 
-16.266438 61.795921 -19.786888 28.340787 36.846050 -26.316374 22.875345 1.015085 -5.569839 9.701762 0.146731 -1.253524 9.703962 0.195604 -1.233817 -17.983173 -6.008537 3.651434 -21.262674 -24.731628 16.098478 0.000002 0.000001 -0.000001 -9.587975 -11.657880 4.333151 -25.003704 -78.424840 -69.546591 0.000123 -86.820857 -0.000057 -0.887720 0.346993 28.280962 -1.665932 10.475367 7.161664 4.500567 14.758251 1.259421 0.034253 8.370849 3.195740 0.000000 -0.000000 -0.000001 0.034412 0.688950 -5.718578 0.216313 1.715680 -14.371181 0.364898 2.215811 -18.700501 0.000001 0.000001 -0.000003 0.093746 1.134608 -9.445821 0.349043 2.168477 -18.286191 0.333446 2.120693 -17.869018 0.000001 0.000000 -0.000002 0.250896 1.845307 -15.484008 0.669548 2.966595 -25.431045 0.659758 2.945978 -25.241567 -0.000001 0.000001 -0.000001 1.226420 5.664400 -14.099805 0.612573 -1.230133 -24.642385 0.753213 3.136266 -27.002820 0.000000 -0.000000 0.000000 0.930059 0.146084 -5.487877 -71.937089 33.393966 35.208888 0.000014 37.313211 -0.000010 -21.691957 1.262127 26.574733 -2.014200 -11.528547 -7.837521 5.353903 -16.615584 -0.772907 -0.558989 -7.825502 -2.926919 0.000000 0.000000 -0.000000 0.312038 -2.063489 17.196712 1.491284 -4.307638 38.176291 0.063148 -0.936898 7.711785 -0.000001 -0.000001 -0.000001 0.435522 -2.426470 20.347750 0.809810 -3.261696 27.880451 0.473431 -2.526271 21.225259 0.000001 0.000000 0.000002 0.835577 -3.309795 28.329420 0.080385 -1.056356 8.702526 0.225647 -1.760385 14.607292 0.000001 0.000001 0.000002 1.187302 -3.891082 33.952614 0.000028 0.015750 0.000047 0.533161 -2.674869 22.541976 -0.000006 -0.000000 0.000000 -82.632291 -0.829414 8.337097 72.778514 -10.566834 6.942230 -12.871385 -13.817799 -1.613814 -0.059186 0.000003 -0.000002 0.000000 -0.000001 -0.000000 -39.162331 -21.454767 -32.122731 57.878333 -4.379724 -10.971218 -8.822240 -3.969565 12.147839 -28.315108 -0.000009 0.000026 0.000000 -0.000000 0.000000 
-16.759560 61.142685 -20.298792 29.330632 35.913374 -25.946488 24.000325 0.989599 -5.947231 9.662941 0.156066 -1.172128 9.664737 0.212078 -1.153574 -18.358633 -5.763991 3.416178 -23.300400 -24.170639 15.427336 -0.000001 0.000000 -0.000000 -8.809905 -11.636368 3.878697 -6.007784 -75.645233 -52.234469 -0.002235 -90.656513 -0.001337 -2.405051 -0.395676 30.116763 -1.665927 10.475377 7.161671 4.500565 14.758249 1.259429 0.034248 8.370853 3.195735 -0.000001 0.000002 0.000001 0.031141 0.655420 -5.439397 0.212161 1.699342 -14.231463 0.362167 2.207721 -18.629483 0.000001 -0.000000 0.000001 0.089306 1.107617 -9.218907 0.343168 2.150596 -18.130034 0.330209 2.110681 -17.781855 -0.000001 -0.000001 0.000001 0.243638 1.818905 -15.256974 0.661393 2.949403 -25.272970 0.655293 2.936430 -25.153825 -0.000001 -0.000000 0.000000 1.198743 5.636607 -13.818629 0.611638 -1.232199 -24.623675 0.749294 3.128584 -26.931164 -0.000001 -0.000001 -0.000000 0.891774 0.258301 -5.194019 -67.787476 27.852192 31.002208 0.000007 40.929253 0.000003 -21.618764 0.597513 26.288362 -2.014205 -11.528593 -7.837544 5.353904 -16.615584 -0.772907 -0.558990 -7.825502 -2.926920 0.000002 0.000005 0.000003 0.311208 -2.060816 17.173544 1.489156 -4.304991 38.148468 0.063060 -0.936207 7.706018 0.000001 -0.000000 0.000000 0.434717 -2.424342 20.328926 0.809083 -3.260296 27.867488 0.473113 -2.525474 21.218135 0.000000 0.000000 0.000000 0.834465 -3.307772 28.310543 0.102029 -1.189137 9.806776 0.244992 -1.832982 15.224415 0.000002 0.000002 0.000002 1.192510 -3.898827 33.945982 0.001331 -0.135889 1.115090 0.580194 -2.785333 23.529257 0.000002 0.000000 0.000001 -84.861760 0.774037 8.874108 73.158313 -10.561257 6.884770 -12.055050 -14.023852 -1.101297 -0.057783 -0.000033 0.000006 -0.000000 0.000001 -0.000000 -41.407977 -21.770154 -33.786767 57.708965 -3.911873 -10.956472 -12.999528 -4.314092 13.541463 -26.619457 -0.000013 0.000012 0.000000 0.000001 -0.000003 
-17.207703 60.624313 -20.807869 29.933198 34.873785 -25.078778 25.343168 0.951952 -6.322670 9.577201 0.166205 -1.106514 9.578653 0.227939 -1.088995 -18.592784 -5.499255 3.248907 -25.377566 -23.459156 14.821227 -0.000001 0.000002 -0.000000 -8.067995 -11.520560 3.370541 2.362414 -72.566122 -45.197267 -0.000367 -92.402282 -0.000037 -3.031710 -0.700683 31.182546 -1.665936 10.475356 7.161663 4.500570 14.758248 1.259426 0.034247 8.370844 3.195732 -0.000002 0.000002 0.000003 0.029315 0.635878 -5.276740 0.209758 1.689842 -14.150071 0.360596 2.203109 -18.589229 -0.000000 -0.000000 0.000001 0.086778 1.091864 -9.086727 0.339760 2.140191 -18.039038 0.328377 2.104977 -17.732160 -0.000001 -0.000002 0.000001 0.239464 1.803534 -15.124699 0.656735 2.939558 -25.182597 0.652735 2.931014 -25.104260 -0.000002 0.000001 -0.000001 1.182688 5.620377 -13.654842 0.611109 -1.233355 -24.613142 0.747092 3.124285 -26.891047 0.000002 0.000000 -0.000000 0.858803 0.370924 -4.930544 -64.377251 21.808664 27.765440 0.000011 46.232024 -0.000003 -21.989634 -0.116514 25.728725 -2.014202 -11.528574 -7.837542 5.353901 -16.615586 -0.772905 -0.558987 -7.825505 -2.926917 -0.000002 0.000002 0.000001 0.306367 -2.045102 17.038494 1.477014 -4.289501 37.986145 0.062508 -0.932131 7.672276 0.000001 0.000001 0.000002 0.430080 -2.411809 20.219136 0.804793 -3.252166 27.791905 0.471280 -2.520754 21.176523 -0.000001 0.000001 -0.000003 0.828119 -3.296010 28.200591 0.125603 -1.318329 10.884975 0.264632 -1.903660 15.827029 -0.000000 -0.000002 -0.000001 1.189414 -3.894225 33.912313 0.005772 -0.283410 2.326182 0.628125 -2.892804 24.496929 -0.000000 0.000002 0.000001 -86.547485 2.565536 9.668993 73.265295 -10.535874 6.646874 -11.275834 -14.327389 -0.483337 -0.034192 0.000018 -0.000002 -0.000000 0.000000 -0.000000 -43.429881 -21.258675 -35.175515 57.710358 -3.456610 -10.883275 -16.388566 -4.699114 14.876852 -23.343285 -0.000001 0.000015 0.000001 -0.000000 -0.000002 
